<?xml version="1.0" encoding="UTF-8"?>
<svg xmlns="http://www.w3.org/2000/svg" xmlns:xlink="http://www.w3.org/1999/xlink" width="100px" height="100px" viewBox="0 0 100 100" version="1.1">
<g id="surface1">
<path style=" stroke:none;fill-rule:nonzero;fill:rgb(100%,100%,100%);fill-opacity:1;" d="M 35.472656 0.460938 C 33.304688 0.820312 31.347656 2.304688 29.351562 5.101562 C 27.8125 7.257812 27.03125 9.101562 25.921875 13.207031 C 25.8125 13.609375 25.71875 13.945312 25.710938 13.949219 C 25.707031 13.953125 25.179688 14.09375 24.535156 14.257812 C 22.523438 14.769531 20.976562 15.203125 18.457031 15.96875 C 17.8125 16.15625 17.378906 16.257812 17.113281 16.285156 C 16.65625 16.320312 16.035156 16.519531 15.644531 16.753906 C 15.492188 16.84375 15.210938 17.085938 15.015625 17.289062 C 14.609375 17.71875 14.359375 18.167969 14.210938 18.769531 C 14.082031 19.261719 14.082031 19.90625 14.203125 28.90625 C 14.253906 32.636719 14.277344 35.726562 14.253906 35.863281 C 14.046875 37.128906 14.570312 38.367188 15.617188 39.082031 C 15.941406 39.304688 16.660156 39.601562 16.890625 39.601562 C 16.96875 39.601562 16.992188 39.617188 16.976562 39.667969 C 16.890625 39.890625 13.859375 44.523438 13.390625 45.140625 C 12.96875 45.699219 12.191406 46.585938 10.796875 48.109375 C 9.355469 49.683594 8.921875 50.1875 8.378906 50.902344 C 7.324219 52.304688 6.898438 53.3125 6.851562 54.5 C 6.816406 55.28125 6.933594 55.851562 7.25 56.484375 C 7.832031 57.636719 8.921875 58.382812 10.398438 58.648438 C 10.914062 58.742188 12.535156 58.726562 13.453125 58.625 C 14.171875 58.546875 15.75 58.324219 16.039062 58.273438 C 16.164062 58.246094 15.960938 58.472656 14.914062 59.53125 C 13.515625 60.941406 13.242188 61.246094 12.367188 62.328125 C 12.039062 62.730469 11.1875 63.71875 10.46875 64.527344 C 8.5 66.726562 7.921875 67.445312 7.398438 68.328125 C 6.84375 69.273438 6.617188 70.039062 6.621094 70.945312 C 6.625 72.070312 7 72.933594 7.796875 73.679688 C 8.363281 74.210938 8.9375 74.496094 9.765625 74.667969 C 10.164062 74.75 10.351562 74.761719 11.15625 74.742188 C 12.085938 74.710938 12.664062 74.644531 14.039062 74.390625 C 15.507812 74.121094 18.398438 73.4375 20.867188 72.78125 C 21.425781 72.632812 21.917969 72.507812 21.953125 72.507812 C 22.011719 72.507812 22.023438 73.03125 22.023438 75.816406 C 22.023438 77.734375 22.039062 79.304688 22.070312 79.5625 C 22.226562 80.902344 22.988281 81.914062 24.332031 82.542969 C 25.058594 82.886719 25.007812 82.886719 27.585938 82.859375 C 32.523438 82.8125 37.847656 82.84375 40.015625 82.925781 C 47.585938 83.226562 50.917969 83.511719 54.960938 84.203125 C 57.738281 84.683594 60.484375 85.421875 62.011719 86.109375 C 63.324219 86.695312 65.390625 87.945312 67.492188 89.417969 C 68.359375 90.03125 68.824219 90.28125 69.265625 90.398438 C 70.671875 90.765625 72.144531 90.171875 72.871094 88.949219 C 73.085938 88.585938 73.207031 88.207031 73.355469 87.457031 L 73.460938 86.890625 L 73.460938 70.761719 L 73.851562 70.734375 C 75.035156 70.632812 76.359375 70.375 77.328125 70.046875 C 81.3125 68.710938 85.21875 65.625 87.65625 61.890625 C 89.09375 59.691406 89.773438 57.441406 89.996094 54.199219 C 90.097656 52.6875 90 48.902344 89.8125 47.046875 C 89.6875 45.761719 89.292969 43.492188 88.898438 41.757812 L 88.785156 41.253906 L 89.164062 41.011719 C 89.820312 40.589844 90.304688 39.984375 90.566406 39.25 C 90.695312 38.898438 90.695312 38.875 90.707031 37.328125 C 90.710938 36.46875 90.777344 32.476562 90.84375 28.453125 C 90.976562 20.789062 90.976562 20.6875 90.777344 20.101562 C 90.578125 19.523438 90.421875 19.328125 89.84375 18.941406 C 89.53125 18.730469 89.351562 18.652344 87.546875 17.914062 C 81.53125 15.449219 77.808594 14.265625 73.925781 13.601562 C 69.484375 12.835938 63.574219 12.222656 57.542969 11.890625 C 54.839844 11.742188 53.988281 11.714844 51.308594 11.683594 L 48.589844 11.65625 L 47.988281 10.726562 C 46.75 8.804688 45.382812 6.890625 44.476562 5.8125 C 43.628906 4.800781 41.714844 2.9375 40.722656 2.164062 C 39.640625 1.320312 38.460938 0.738281 37.367188 0.511719 C 36.84375 0.40625 35.953125 0.382812 35.472656 0.460938 Z M 36.960938 7.457031 C 37.535156 7.910156 39.257812 9.640625 39.707031 10.203125 C 39.914062 10.460938 40.277344 10.941406 40.523438 11.28125 C 40.894531 11.792969 40.953125 11.894531 40.878906 11.921875 C 40.835938 11.9375 40.234375 11.992188 39.550781 12.035156 C 38.101562 12.128906 35.644531 12.347656 34.105469 12.523438 C 33.515625 12.59375 32.984375 12.648438 32.925781 12.648438 C 32.816406 12.648438 32.820312 12.625 33.0625 11.929688 C 33.199219 11.53125 33.394531 11.015625 33.496094 10.78125 C 33.96875 9.695312 35.15625 8.015625 35.972656 7.28125 C 36.351562 6.9375 36.304688 6.929688 36.960938 7.457031 Z M 47.882812 18.664062 C 47.867188 18.941406 47.84375 20.472656 47.828125 22.070312 C 47.8125 23.667969 47.789062 25.746094 47.769531 26.6875 L 47.738281 28.402344 L 46.585938 28.4375 C 45.953125 28.453125 44.824219 28.492188 44.078125 28.519531 C 43.328125 28.554688 42.714844 28.570312 42.699219 28.558594 C 42.671875 28.523438 42.273438 18.398438 42.308594 18.367188 C 42.363281 18.316406 45.429688 18.183594 47.011719 18.171875 L 47.90625 18.164062 Z M 55.664062 18.285156 C 56.65625 18.320312 59.523438 18.492188 59.546875 18.515625 C 59.554688 18.53125 59.667969 27.34375 59.667969 28.316406 L 59.667969 28.773438 L 59.292969 28.742188 C 58.734375 28.695312 56.273438 28.5625 55.214844 28.523438 C 54.710938 28.507812 54.289062 28.476562 54.273438 28.457031 C 54.238281 28.421875 54.339844 18.382812 54.375 18.273438 C 54.390625 18.226562 54.453125 18.210938 54.601562 18.234375 C 54.71875 18.246094 55.195312 18.273438 55.664062 18.285156 Z M 35.992188 23.414062 C 36.089844 25.90625 36.179688 28.199219 36.195312 28.5 L 36.214844 29.042969 L 35.96875 29.070312 C 33.78125 29.316406 32.503906 29.449219 32.484375 29.421875 C 32.464844 29.40625 32.09375 21.53125 32.027344 19.628906 L 32.011719 19.3125 L 32.835938 19.199219 C 34.117188 19.027344 35.609375 18.859375 35.71875 18.863281 C 35.816406 18.871094 35.820312 18.96875 35.992188 23.414062 Z M 67.796875 19.261719 C 69.164062 19.429688 70.835938 19.652344 71.097656 19.707031 C 71.21875 19.730469 71.21875 19.730469 71.179688 20.054688 C 71.152344 20.265625 71.171875 22.109375 71.242188 25.136719 C 71.292969 27.753906 71.332031 29.902344 71.324219 29.917969 C 71.3125 29.925781 70.898438 29.878906 70.40625 29.8125 C 69.375 29.671875 67.191406 29.414062 66.644531 29.367188 C 66.4375 29.34375 66.25 29.320312 66.21875 29.300781 C 66.175781 29.277344 66.0625 22.242188 66.0625 19.808594 L 66.0625 19.09375 L 66.226562 19.09375 C 66.3125 19.09375 67.023438 19.171875 67.796875 19.261719 Z M 25.605469 21.25 C 25.664062 22.21875 26.023438 30.628906 26.015625 30.640625 C 26.007812 30.640625 25.527344 30.761719 24.953125 30.902344 C 23.984375 31.140625 21.03125 31.933594 20.839844 32.007812 C 20.773438 32.035156 20.757812 31.984375 20.734375 31.632812 C 20.71875 31.40625 20.695312 29.941406 20.679688 28.367188 C 20.664062 26.796875 20.640625 24.742188 20.621094 23.796875 C 20.589844 22.144531 20.59375 22.085938 20.683594 22.0625 C 20.734375 22.046875 21.308594 21.875 21.960938 21.683594 C 23.40625 21.253906 25.386719 20.707031 25.5 20.707031 C 25.566406 20.703125 25.582031 20.785156 25.605469 21.25 Z M 80.121094 21.984375 C 81.292969 22.398438 83.171875 23.109375 83.9375 23.433594 L 84.398438 23.628906 L 84.414062 24.03125 C 84.429688 24.421875 84.28125 33.3125 84.261719 33.328125 C 84.257812 33.335938 83.8125 33.171875 83.277344 32.976562 C 82.050781 32.523438 79.941406 31.828125 78.757812 31.480469 L 77.855469 31.210938 L 77.847656 30.902344 C 77.84375 30.734375 77.804688 28.910156 77.757812 26.855469 C 77.71875 24.800781 77.671875 22.675781 77.65625 22.132812 L 77.625 21.148438 L 78.324219 21.371094 C 78.710938 21.492188 79.523438 21.765625 80.121094 21.984375 Z M 52.757812 34.9375 C 60.046875 35.074219 70.304688 36.089844 74.742188 37.113281 C 75.921875 37.386719 77.558594 37.859375 79.027344 38.355469 C 80.425781 38.824219 81.53125 39.226562 81.601562 39.296875 C 81.625 39.320312 81.792969 39.914062 81.960938 40.605469 C 82.738281 43.695312 83.242188 46.265625 83.394531 47.875 C 83.585938 49.921875 83.589844 53.902344 83.402344 55.074219 C 83.203125 56.375 82.921875 57.222656 82.390625 58.085938 C 80.933594 60.5 78.316406 62.714844 75.722656 63.742188 C 74.492188 64.226562 72.984375 64.40625 69.996094 64.40625 C 67.84375 64.40625 66.007812 64.316406 63.238281 64.082031 C 61.390625 63.925781 61.074219 63.960938 60.242188 64.390625 C 59.914062 64.5625 59.742188 64.6875 59.457031 64.984375 C 58.808594 65.664062 58.511719 66.464844 58.558594 67.382812 C 58.648438 68.929688 59.789062 70.148438 61.402344 70.40625 C 62.011719 70.503906 65.191406 70.746094 66.75 70.816406 C 66.929688 70.820312 67.015625 70.84375 67.011719 70.882812 C 67.007812 70.917969 67 73.296875 67 76.171875 L 66.992188 81.398438 L 66.6875 81.21875 C 66.097656 80.890625 64.726562 80.214844 64.195312 80 C 61.207031 78.773438 56.984375 77.816406 51.953125 77.226562 C 48.890625 76.867188 46.207031 76.695312 39.109375 76.40625 C 38.128906 76.367188 35.9375 76.34375 33.046875 76.34375 L 28.515625 76.347656 L 28.511719 75.367188 C 28.507812 74.828125 28.484375 73.039062 28.46875 71.386719 C 28.429688 68.070312 28.429688 68.082031 28.101562 67.40625 C 27.414062 65.984375 26.410156 65.214844 25.113281 65.109375 C 24.601562 65.0625 24.222656 65.132812 23.015625 65.472656 C 20.0625 66.3125 16.84375 67.152344 16.84375 67.089844 C 16.84375 67.066406 16.871094 67.03125 16.894531 67.015625 C 16.921875 66.996094 17.207031 66.660156 17.53125 66.257812 C 18.339844 65.25 18.570312 65.007812 21.019531 62.574219 C 23.636719 59.96875 24.394531 59.136719 25.125 58.050781 C 26.257812 56.367188 26.46875 54.691406 25.726562 53.265625 C 25.3125 52.464844 24.566406 51.8125 23.703125 51.484375 C 23.027344 51.230469 22.640625 51.167969 21.65625 51.136719 C 20.554688 51.109375 19.683594 51.179688 17.710938 51.464844 C 16.984375 51.570312 16.382812 51.648438 16.375 51.644531 C 16.367188 51.636719 16.546875 51.425781 16.777344 51.171875 C 17.949219 49.878906 18.667969 48.949219 19.664062 47.460938 C 21.292969 45.015625 25.746094 38.011719 25.984375 37.523438 C 26.113281 37.261719 26.050781 37.285156 27.734375 36.894531 C 29.859375 36.402344 31.078125 36.175781 32.914062 35.9375 C 36.890625 35.425781 41.074219 35.097656 45.433594 34.960938 C 48.066406 34.878906 49.257812 34.875 52.757812 34.9375 Z M 52.757812 34.9375 "/>
<path style=" stroke:none;fill-rule:nonzero;fill:rgb(100%,100%,100%);fill-opacity:1;" d="M 57.539062 43.796875 C 56.835938 43.925781 56.242188 44.253906 55.742188 44.78125 C 55.101562 45.460938 54.851562 46.148438 54.898438 47.117188 C 54.929688 47.988281 55.203125 48.609375 55.8125 49.21875 C 56.40625 49.8125 57.0625 50.097656 57.910156 50.136719 C 58.539062 50.160156 58.945312 50.078125 59.5 49.804688 C 60.320312 49.394531 60.953125 48.617188 61.15625 47.742188 C 61.25 47.339844 61.25 46.539062 61.15625 46.167969 C 60.800781 44.800781 59.625 43.847656 58.207031 43.773438 C 57.976562 43.765625 57.675781 43.773438 57.539062 43.796875 Z M 57.539062 43.796875 "/>
</g>
</svg>
